<svg width="80" height="56" viewBox="0 0 80 56" fill="none" xmlns="http://www.w3.org/2000/svg">
<g clip-path="url(#clip0_31_78)">
<path d="M38.4541 6.24017V56" stroke="#1D265E" stroke-miterlimit="10"/>
<path d="M38.2211 7.19943L22.75 20.8713" stroke="#1D265E" stroke-miterlimit="10"/>
<path d="M9.33984 3.8168L23.1975 21.0328" stroke="#1D265E" stroke-miterlimit="10"/>
<path d="M10.5412 46.357C4.46393 41.8233 0.448242 34.0079 0.448242 25.1324C0.448242 16.2568 4.18606 8.99677 9.91379 4.40247" stroke="#1D265E" stroke-miterlimit="10"/>
<path d="M22.8122 50.5171C18.2766 50.5171 14.0637 48.9924 10.541 46.357" stroke="#1D265E" stroke-miterlimit="10"/>
<path d="M41.5459 6.24017V56" stroke="#1D265E" stroke-miterlimit="10"/>
<path d="M41.7793 7.19943L57.2504 20.8713" stroke="#1D265E" stroke-miterlimit="10"/>
<path d="M70.6595 3.8168L56.8018 21.0328" stroke="#1D265E" stroke-miterlimit="10"/>
<path d="M69.459 46.357C75.5363 41.8233 79.552 34.0079 79.552 25.1324C79.552 16.2568 75.8142 8.99676 70.0864 4.39236" stroke="#1D265E" stroke-miterlimit="10"/>
<path d="M57.1875 50.5171C61.7231 50.5171 65.936 48.9924 69.4586 46.357" stroke="#1D265E" stroke-miterlimit="10"/>
</g>
<defs>
<clipPath id="clip0_31_78">
<rect width="80" height="56" fill="white"/>
</clipPath>
</defs>
</svg>
